<?xml version="1.0" encoding="UTF-8" standalone="no"?>
<!-- Created with Inkscape (http://www.inkscape.org/) -->

<svg
   width="309.81317mm"
   height="76.405922mm"
   viewBox="0 0 309.81317 76.405922"
   version="1.1"
   id="svg8"
   inkscape:version="1.1.1 (eb90963e84, 2021-10-02)"
   sodipodi:docname="demo_sign.svg"
   xmlns:inkscape="http://www.inkscape.org/namespaces/inkscape"
   xmlns:sodipodi="http://sodipodi.sourceforge.net/DTD/sodipodi-0.dtd"
   xmlns="http://www.w3.org/2000/svg"
   xmlns:svg="http://www.w3.org/2000/svg"
   xmlns:rdf="http://www.w3.org/1999/02/22-rdf-syntax-ns#"
   xmlns:cc="http://creativecommons.org/ns#"
   xmlns:dc="http://purl.org/dc/elements/1.1/">
  <defs
     id="defs2" />
  <sodipodi:namedview
     id="base"
     pagecolor="#ffffff"
     bordercolor="#666666"
     borderopacity="1.0"
     inkscape:pageopacity="0.0"
     inkscape:pageshadow="2"
     inkscape:zoom="0.98994949"
     inkscape:cx="578.31233"
     inkscape:cy="350.52293"
     inkscape:document-units="mm"
     inkscape:current-layer="layer1"
     showgrid="false"
     inkscape:window-width="1920"
     inkscape:window-height="1010"
     inkscape:window-x="0"
     inkscape:window-y="33"
     inkscape:window-maximized="1"
     inkscape:pagecheckerboard="1" />
  <metadata
     id="metadata5">
    <rdf:RDF>
      <cc:Work
         rdf:about="">
        <dc:format>image/svg+xml</dc:format>
        <dc:type
           rdf:resource="http://purl.org/dc/dcmitype/StillImage" />
        <dc:title />
      </cc:Work>
    </rdf:RDF>
  </metadata>
  <g
     inkscape:label="Layer 1"
     inkscape:groupmode="layer"
     id="layer1"
     transform="translate(64.349973,-3.2373431)">
    <path
       style="fill:#ffffff;stroke-width:0.26458335;fill-opacity:1"
       d="m -57.60357,79.389811 c -2.574899,-0.37022 -5.088869,-2.01345 -6.114405,-3.99661 -0.91922,-1.77758 -0.825855,-5.5315 0.215763,-8.6752 0.216973,-0.65484 0.541153,-1.84546 0.7204,-2.64583 0.296314,-1.32309 2.670042,-6.44534 4.046187,-8.73125 0.306619,-0.50932 1.161329,-1.64042 1.899358,-2.51354 0.738026,-0.87313 1.462616,-1.7305 1.610198,-1.90528 0.147582,-0.17478 0.565989,-0.69223 0.929791,-1.14988 1.141915,-1.43649 4.277061,-4.48547 4.612238,-4.48547 0.05785,0 1.216647,-1.104 2.575113,-2.45333 1.761119,-1.74928 2.715842,-2.94517 3.326802,-4.16719 1.349131,-2.69847 1.869141,-3.43364 2.428711,-3.43364 0.283374,0 0.590804,0.23812 0.683178,0.52916 0.09237,0.29104 0.25654,0.52917 0.364815,0.52917 0.108273,0 0.452459,-0.23813 0.764858,-0.52917 0.312396,-0.29104 0.635915,-0.52916 0.718933,-0.52916 0.08302,0 0.91802,-0.59532 1.85556,-1.32292 0.937541,-0.7276 1.802292,-1.32292 1.921666,-1.32292 0.119375,0 0.639977,-0.38695 1.156894,-0.85989 0.516916,-0.47295 1.445622,-1.2991 2.063789,-1.8359 l 1.12394,-0.97599 -1.413354,0.53309 c -0.777343,0.2932 -1.526461,0.6431 -1.664706,0.77756 -0.138244,0.13446 -0.454414,0.24447 -0.702601,0.24447 -0.248184,0 -0.968512,0.25503 -1.600729,0.56673 -1.343998,0.66264 -1.677686,0.79785 -3.795315,1.53789 -0.873125,0.30512 -1.825625,0.65326 -2.116667,0.77364 -1.150165,0.47572 -3.209713,1.15974 -3.836458,1.27417 -0.363802,0.0664 -0.899584,0.22001 -1.190625,0.34132 -0.457841,0.19084 -2.18984,0.65829 -5.983822,1.61499 -1.465768,0.36961 -2.214187,0.29239 -2.97633,-0.30711 -0.797711,-0.62748 -0.874945,-1.08811 -0.28189,-1.68117 0.329568,-0.32957 0.530596,-0.35351 0.974286,-0.11606 0.713264,0.38173 4.247473,-0.11055 7.077131,-0.98577 1.091406,-0.33758 2.341562,-0.69168 2.778125,-0.78689 1.251556,-0.27297 4.171235,-1.2666 5.820833,-1.98095 0.291042,-0.12603 1.541198,-0.60553 2.778125,-1.06556 2.126649,-0.79093 3.075908,-1.20374 7.342187,-3.19295 7.00404,-3.26574 8.554696,-4.08431 12.501563,-6.5994 2.124421,-1.35377 5.073192,-3.15122 5.169654,-3.15122 0.05705,0 1.268701,-0.75817 2.6925584,-1.68482 2.2651429,-1.47417 3.5015461,-2.2106 5.5200947,-3.28791 0.8578558,-0.45784 3.33622378,-1.37727 3.71250096,-1.37727 0.19552179,0 0.56089814,0.31349 0.81194804,0.69664 0.4467728,0.68186 0.4412218,0.70878 -0.26169144,1.26927 -0.39497793,0.31494 -1.40131005,0.91233 -2.23629266,1.32753 -1.4802485,0.73605 -2.774024,1.46449 -6.0160641,3.38723 -0.873125,0.51783 -2.5995309,1.47215 -3.8364579,2.12072 -5.32433,2.79177 -8.235003,4.40846 -8.466667,4.70268 -0.07276,0.0924 -1.603507,1.09696 -3.401658,2.23234 -2.840924,1.79379 -7.134127,4.85221 -8.122332,5.78623 -0.613445,0.57981 -1.324706,1.12637 -2.637192,2.02651 -1.279872,0.87777 -3.021259,2.15594 -4.350938,3.19356 -0.359008,0.28016 -0.738677,0.50938 -0.843706,0.50938 -0.105029,0 -0.925912,0.73952 -1.824186,1.64339 -1.273815,1.28175 -1.576112,1.73299 -1.373698,2.05052 0.289515,0.45417 2.287722,0.48656 3.481057,0.0564 0.376261,-0.13563 2.648643,-0.87057 5.049737,-1.6332 2.401093,-0.76264 4.663281,-1.50738 5.027083,-1.65498 0.363802,-0.1476 0.899583,-0.36551 1.190625,-0.48423 0.291041,-0.11872 1.103974,-0.40218 1.806517,-0.6299 0.702542,-0.22773 1.619366,-0.59091 2.037381,-0.80708 1.719575,-0.88923 2.597515,0.0119 1.700877,1.74583 -0.248277,0.48012 -0.550855,1.21967 -0.672396,1.64346 -0.219144,0.76411 -0.213358,0.76909 0.695306,0.59862 1.179446,-0.22127 4.233884,-1.52189 5.949106,-2.53322 1.966349,-1.15941 3.167584,-0.98103 3.167584,0.47037 0,0.58844 0.0677,0.6146 1.164502,0.45012 1.055376,-0.15826 1.1825,-0.11793 1.35653,0.43039 0.256513,0.80821 -0.529704,1.43345 -2.272515,1.80721 -1.778076,0.38133 -1.940507,0.36803 -2.664584,-0.2183 -0.397793,-0.32211 -0.766638,-0.42736 -1.021498,-0.29148 -0.219392,0.11697 -1.529987,0.59927 -2.912435,1.07179 -3.057933,1.04519 -4.771528,1.15445 -5.571273,0.35522 -0.542393,-0.54204 -0.546428,-0.59808 -0.13117,-1.8212 0.485412,-1.42975 0.40001,-1.66847 -0.449519,-1.2565 -0.327203,0.15867 -0.952101,0.3614 -1.388663,0.45051 -0.436563,0.0891 -1.150938,0.32395 -1.5875,0.52189 -0.436563,0.19794 -1.091406,0.48421 -1.455209,0.63616 -0.770493,0.32182 -4.885181,1.65813 -6.614583,2.1482 -1.190643,0.33739 -1.601597,0.48009 -2.989011,1.03788 -1.323578,0.53212 -3.08279,0.37072 -4.056819,-0.37221 l -0.87807,-0.66974 -1.263571,1.28166 c -1.243735,1.26154 -3.290546,3.12929 -5.137454,4.68802 -0.517274,0.43656 -1.107419,1.10481 -1.311431,1.485 -0.204015,0.38018 -1.142648,1.55046 -2.085853,2.60062 -2.121879,2.36247 -3.292803,4.06791 -4.552053,6.63001 -1.268837,2.5816 -1.630026,3.58613 -3.384443,9.41269 -0.194926,0.64736 -0.287417,2.0989 -0.231429,3.63202 l 0.09326,2.55371 1.322917,1.18477 c 0.727604,0.65162 1.524249,1.1901 1.770323,1.19662 0.246073,0.007 0.512308,0.11687 0.591634,0.24522 0.133414,0.21587 2.601367,0.58973 4.557429,0.69039 2.453002,0.12624 9.50618,-0.97258 14.114989,-2.19897 1.091406,-0.29042 2.401094,-0.66969 2.910417,-0.84283 1.609333,-0.54707 4.60933,-1.62 5.159374,-1.84522 0.291042,-0.11916 0.945886,-0.35976 1.455209,-0.53465 1.304988,-0.44811 1.819375,-0.65255 3.175,-1.26187 6.128329,-2.510927 7.259639,-2.706815 13.436272,-6.3449 0.197921,-0.1819 0.494228,-0.33073 0.65846,-0.33073 0.211246,0 0.205719,-0.0929 -0.01889,-0.3175 -0.369181,-0.36918 -0.42972,-1.53459 -0.07972,-1.53459 0.286872,0 2.544723,-2.23181 3.4663856,-3.42641 0.363802,-0.47154 1.052441,-1.29248 1.5303076,-1.82432 1.1632168,-1.29458 1.7552247,-2.41748 1.4404737,-2.73224 -0.1370859,-0.13708 -0.9508913,-0.41698 -1.8084535,-0.62198 -1.5010714,-0.35885 -6.2411984,-0.36579 -8.9675364,-0.0131 -0.582083,0.0753 -2.189427,0.26504 -3.571875,0.42167 -5.929762,0.67183 -15.045618,2.43834 -20.637499,3.99923 -0.509323,0.14217 -1.402292,0.37691 -1.984375,0.52165 -3.005252,0.74724 -9.647241,3.16819 -12.599459,4.59239 -1.652324,0.79711 -1.820333,0.81556 -1.820333,0.1999 0,-0.60588 2.325209,-1.68318 7.408333,-3.43238 5.792753,-2.143709 10.873812,-3.697984 16.801042,-4.81632 0.873125,-0.16951 1.944687,-0.41218 2.38125,-0.53927 0.436562,-0.1271 1.508125,-0.31003 2.38125,-0.40652 0.873125,-0.0965 2.361406,-0.34109 3.307291,-0.54355 4.404075,-0.94265 13.619652,-1.83213 16.5519737,-1.59757 1.0271787,0.0822 2.3032746,0.33143 2.8357724,0.55392 0.5324951,0.22249 1.0330101,0.40453 1.1122501,0.40453 0.079243,0 0.5472351,-0.63024 1.0399845,-1.40054 2.8087591,-3.965292 5.13486597,-7.860308 7.6600578,-11.78749 0.6348175,-0.96851 1.6875363,-2.65389 2.3393718,-3.7453 2.1624713,-3.62074 3.4424196,-5.65721 5.5292917,-8.79739 1.136324,-1.70987 1.969053,-3.10886 1.850504,-3.10886 -0.169974,0 -2.304489,1.7286 -2.9358806,2.37757 -0.1712542,0.17602 -1.9010127,1.66869 -3.6835741,3.17868 -0.773049,0.65485 -2.6545328,2.39474 -4.1810728,3.86643 -2.60550549,2.51188 -2.78404368,2.75132 -2.91449385,3.90867 -0.17448476,1.54802 -0.59794245,1.87366 -0.59794245,0.45983 0,-1.202 0.3478583,-2.27058 0.92800487,-2.85073 0.21823097,-0.21823 0.77897301,-0.9534 1.24609224,-1.63372 0.89831329,-1.30831 3.10953679,-3.5547 6.29615989,-6.39631 1.0607278,-0.94589 2.4761216,-2.24031 3.1453168,-2.87651 0.669194,-0.63619 2.407343,-2.12193 3.862551,-3.30163 1.455208,-1.1797 3.893717,-3.37003 5.41891,-4.86741 1.631651,-1.6019 2.920193,-2.66605 3.130494,-2.58536 0.196578,0.0754 0.466741,0.13716 0.600361,0.13716 0.473268,0 0.234064,1.47766 -0.386241,2.38598 -0.346051,0.50672 -1.866392,2.17147 -3.378533,3.69944 -2.295036,2.31905 -3.987007,4.22393 -5.050275,5.68578 -0.106944,0.14704 -0.474474,0.62453 -0.816729,1.06109 -0.342257,0.43656 -1.175366,1.62719 -1.851355,2.64583 -0.67599,1.01865 -1.693818,2.50693 -2.2618385,3.3073 -0.5680234,0.80036 -3.028016,4.4913 -5.4666541,8.20208 -2.4386355,3.71078 -4.63478029,7.04453 -4.88031891,7.40833 -1.13453069,1.68098 -2.48619959,3.58425 -2.63063829,3.70417 -0.087633,0.0728 -0.3871912,0.56683 -0.6656837,1.09792 l -0.5063543,0.96563 0.7002753,0.83223 c 0.3851513,0.45773 0.8410522,1.3021 1.0131108,1.87638 0.2671762,0.89176 0.2418953,1.20147 -0.1732333,2.12206 -0.5790539,1.28411 -2.7081242,3.2874 -4.5144584,4.24777 -6.8962616,3.66649 -11.2992536,5.90197 -13.9995886,7.10786 -1.018645,0.45489 -2.058826,0.94008 -2.311513,1.0782 -0.252688,0.13811 -0.581406,0.25112 -0.730488,0.25112 -0.149083,0 -0.835306,0.24999 -1.524945,0.55553 -2.050158,0.90832 -2.217708,0.9757 -4.561179,1.83414 -1.236927,0.4531 -2.487083,0.92782 -2.778124,1.05495 -2.527131,1.10382 -10.137074,3.18049 -13.49375,3.6823 -1.164167,0.17404 -2.615875,0.42762 -3.226017,0.56351 -1.32664,0.29546 -5.149615,0.27171 -7.357317,-0.0457 z m 48.8623477,-17.44788 c 3.1210911,-1.89413 4.3808173,-3.49846 4.0657462,-5.17794 -0.3076178,-1.63974 -1.1440901,-1.16819 -3.2233949,1.81713 -0.5324845,0.7645 -1.5559246,2.13415 -2.274311,3.04365 -0.718388,0.90951 -1.185584,1.65365 -1.038217,1.65365 0.147371,0 1.2589486,-0.60142 2.4701767,-1.33649 z m 139.4829923,6.79169 c -1.23664,-1.4121 -1.49506,-3.81872 -0.6274,-5.84289 0.99727,-2.32654 3.45686,-5.43314 4.30158,-5.43314 0.86301,0 0.5142,1.14835 -0.89513,2.94695 -0.97856,1.24885 -2.22963,3.81 -2.44405,5.0034 -0.11127,0.61929 -0.0438,1.10965 0.19809,1.44051 0.35085,0.47982 0.39722,0.48168 1.06705,0.0428 1.31247,-0.85996 3.65921,-3.10633 7.30139,-6.9891 3.05485,-3.25665 3.84083,-4.21426 5.68855,-6.93077 1.93975,-2.85182 4.83308,-6.41972 6.23169,-7.68461 0.0805,-0.0728 0.48154,-0.57877 0.8913,-1.12448 0.89162,-1.18742 0.52201,-1.27146 -0.99664,-0.2266 -4.86313,3.34592 -6.09773,3.1547 -4.28528,-0.66371 0.75084,-1.368737 1.37164,-2.773456 2.28494,-3.8317 0.30478,-0.34969 1.19759,-1.5883 1.98404,-2.75247 0.78644,-1.16416 1.69794,-2.41593 2.02554,-2.7817 1.19898,-1.33865 4.18066,-3.69356 4.89176,-3.86347 0.40204,-0.0961 0.85004,-0.26147 0.99556,-0.36756 0.45062,-0.32853 2.86864,-0.53414 3.70417,-0.31497 0.54473,0.14288 0.94352,0.5108 1.27115,1.17275 0.73908,1.49325 0.2672,2.812 -1.68897,4.72017 -0.86161,0.84047 -1.56656,1.65595 -1.56656,1.81218 0,0.15624 -0.27384,0.28406 -0.60854,0.28406 -0.3347,0 -0.75943,0.14883 -0.94385,0.33073 -0.26875,0.26508 -0.41056,0.22878 -0.71438,-0.18286 -0.61553,-0.83398 -0.62725,-0.81506 1.73022,-2.7937 1.10139,-0.92441 2.12405,-2.30887 2.12405,-2.8755 0,-0.18894 -0.57349,-0.2995 -1.55355,-0.2995 -1.41499,0 -1.72766,0.1149 -3.50573,1.28821 -2.16734,1.4302 -2.79339,2.05749 -5.3159,5.32637 -0.95451,1.23693 -1.9836,2.53099 -2.28687,2.8757 -0.49453,0.748832 -1.64966,2.335121 -1.47796,2.70515 0.15749,0.25482 0.86372,-0.037 1.49576,-0.61818 0.19888,-0.18285 0.65464,-0.50242 1.01282,-0.71016 4.13627,-2.39896 5.04611,-2.90322 5.49592,-3.04598 0.71293,-0.22628 1.44565,0.52905 1.21578,1.2533 -0.28855,0.90915 -2.46203,3.51051 -6.10864,7.31122 -1.33618,1.39264 -2.70129,2.88927 -3.03359,3.32583 -0.33229,0.43656 -0.6722,0.85328 -0.75535,0.92604 -0.0831,0.0728 -0.52249,0.70126 -0.9763,1.39666 -0.45381,0.69541 -1.45866,2.0051 -2.23301,2.91042 -2.58125,3.01788 -8.90967,9.5064 -10.28592,10.54614 -0.50815,0.3839 -1.2811,1.00883 -1.71766,1.38874 -0.87163,0.7585 -1.42724,0.85425 -1.89008,0.32574 z M 42.993288,54.742101 c -0.260686,-0.32549 -0.520467,-0.82993 -0.577292,-1.12097 -0.47771,-2.44675 -0.673581,-3.99146 -0.722997,-5.70187 -0.05087,-1.76088 0.02862,-2.14503 0.670573,-3.24044 0.826209,-1.40982 3.647308,-3.88998 4.42472,-3.88998 0.859043,0 0.586658,0.63584 -0.873633,2.03938 -3.019251,2.9019 -3.190579,3.32187 -2.843067,6.96909 0.310068,1.225487 -0.284189,2.996406 0.520366,3.94735 0.505024,0.5823 0.604578,0.60024 1.567307,0.28251 0.565415,-0.1866 1.322875,-0.59242 1.683245,-0.90183 0.360368,-0.3094 1.049745,-0.8602 1.531948,-1.224 0.482201,-0.36381 1.268018,-1.04841 1.746261,-1.52136 2.146025,-1.752073 3.947461,-3.83456 5.531437,-5.46514 0.617572,-0.63392 1.015391,-1.54452 1.689245,-3.86666 0.484789,-1.67061 1.119281,-3.51006 1.409984,-4.08768 1.446898,-2.735911 3.100038,-5.14599 5.334457,-7.10975 1.955123,-1.70516 1.971207,-1.71287 3.059658,-1.46832 0.601808,0.13522 1.207545,0.1758 1.346078,0.0902 0.138536,-0.0856 0.865984,-1.07019 1.616557,-2.18795 1.248644,-1.812074 2.468893,-3.579797 3.575761,-5.00229 3.231986,-4.13903 4.432136,-5.86108 4.227428,-6.06579 -0.157181,-0.15718 -2.074582,0.51607 -4.344823,1.52559 -2.833477,1.076881 -6.664125,2.99783 -9.715283,1.77857 -1.335845,-0.60865 -1.537174,-3.8955 -0.366713,-5.98686 0.750893,-1.34168 1.106734,-1.56463 1.798656,-1.12693 0.302824,0.19156 0.322633,0.37362 0.09312,0.85584 -1.219375,2.56202 -1.574522,4.24251 -0.997749,4.72119 0.735925,0.61077 5.908799,-0.31276 8.001436,-1.42851 0.396344,-0.21132 1.137344,-0.53105 1.646666,-0.71051 0.509323,-0.17946 2.482017,-1.08214 4.38376,-2.00595 2.836085,-1.37769 3.828563,-2.02259 5.520449,-3.5871396 2.316081,-2.14175 4.150995,-3.64618 4.451845,-3.65003 0.110466,-10e-4 0.569624,-0.35499 1.02035,-0.78573 1.175271,-1.12315 4.13023,-1.9139 5.371748,-1.43749 0.493379,0.18933 0.537355,1.12711 0.07937,1.69254 -0.426244,0.52625 -2.801033,2.41837 -3.599725,2.8681 -0.34735,0.19558 -1.06172,0.59778 -1.587487,0.89378 -0.525764,0.296 -2.136616,1.14801 -3.579667,1.8933496 -1.443053,0.74535 -3.259759,1.93359 -4.037126,2.64053 -1.603909,1.45862 -5.632236,6.36902 -10.883556,13.26673 -1.107871,1.45521 -2.110541,2.76489 -2.228159,2.91041 -0.98193,1.21489 -4.588579,6.01578 -5.086509,6.77077 -0.344577,0.52247 -0.785842,1.11794 -0.980585,1.32328 -0.194747,0.20533 -0.80612,0.93577 -1.358607,1.62319 -0.552489,0.68741 -1.149514,1.40163 -1.326724,1.58714 -0.812443,0.8505 -2.034378,2.56089 -2.034378,2.84759 0,0.22907 0.37034,0.26655 1.329885,0.13458 1.19905,-0.16491 1.882865,-0.33186 5.020115,-1.22562 0.509322,-0.1451 1.34276,-0.35418 1.852083,-0.46462 0.509323,-0.11044 1.640417,-0.50279 2.513542,-0.87187 0.873125,-0.36909 2.06375,-0.8229 2.645833,-1.00847 0.582083,-0.18556 1.93023,-0.7378 2.995885,-1.2272 1.065654,-0.48939 2.022851,-0.88981 2.127104,-0.88981 0.104254,0 0.98878,-0.41672 1.965616,-0.92604 1.435816,-0.676324 2.752892,-1.477475 3.957749,-2.07523 1.768528,-0.86827 2.952152,-1.57401 3.064756,-1.82737 0.04851,-0.10914 0.202314,-0.19844 0.341794,-0.19844 0.139478,0 0.509193,-0.23813 0.821589,-0.52917 0.725879,-0.67626 2.057377,-0.71918 2.051664,-0.0661 -0.0054,0.62108 -0.189822,0.84193 -1.583449,1.89658 -0.654844,0.49556 -1.845469,1.71706 -2.645833,2.71444 -0.800365,0.99737 -1.968606,2.43662 -2.596095,3.19833 -0.98499,1.19568 -1.071996,1.39573 -0.636743,1.46404 0.277275,0.0435 0.969269,-0.0931 1.537758,-0.3035 2.91683,-1.07974 4.599297,-1.74196 5.796121,-2.28136 0.727604,-0.32792 1.918229,-0.86563 2.645834,-1.19491 0.727604,-0.32927 1.918229,-0.86505 2.645833,-1.1906 0.727604,-0.32556 2.334948,-1.07022 3.571875,-1.65479 3.056781,-1.44466 5.493701,-2.3249 5.950801,-2.14949 0.97101,0.37261 0.48515,2.21324 -0.58422,2.21324 -0.51793,0 -3.828611,3.45721 -5.114097,5.34044 -1.603947,2.34979 -1.221748,2.52964 2.689037,1.26538 1.36534,-0.44137 2.72056,-0.90576 3.0116,-1.03196 0.29104,-0.1262 1.09342,-0.47945 1.78305,-0.785 0.68964,-0.30554 1.3029,-0.55553 1.36279,-0.55553 0.0599,0 1.13018,-0.47625 2.37841,-1.05833 1.24823,-0.58209 2.335,-1.05834 2.41505,-1.05834 0.08,0 1.00536,-0.40251 2.05625,-0.89447 1.05088,-0.49196 2.38695,-1.0947 2.96903,-1.33942 0.58209,-0.24472 1.53459,-0.67597 2.11667,-0.95834 0.58208,-0.28237 1.20716,-0.51307 1.38906,-0.51267 0.1819,5.3e-4 0.33118,-0.0886 0.33172,-0.1977 5.3e-4,-0.10914 0.54603,-0.42261 1.21219,-0.69659 1.08415,-0.44589 1.25343,-0.45593 1.61371,-0.0957 0.78342,0.992693 -0.72406,1.739225 -2.16543,2.34962 -2.18531,0.925441 -5.03413,4.385935 -4.78115,5.22546 0.14002,0.22657 1.82741,-0.1662 3.19365,-0.74337 0.43656,-0.18443 2.81781,-0.98809 5.29167,-1.7859 2.47385,-0.79781 5.21229,-1.72392 6.08541,-2.05801 0.87313,-0.3341 2.36141,-0.79979 3.30729,-1.03486 0.94589,-0.23507 2.33799,-0.65402 3.09356,-0.93101 1.29831,-0.47595 1.39639,-0.4786 1.78593,-0.0482 0.2267,0.2505 0.41218,0.58918 0.41218,0.75263 0,0.27736 -2.14518,1.91011 -2.50958,1.91011 -0.0909,0 -0.87542,0.48224 -1.74335,1.07164 -1.97586,1.34179 -3.58376,3.69086 -2.52634,3.69086 0.20046,0 0.5127,0.17859 0.69385,0.39687 0.48429,0.58352 -0.12116,1.19063 -1.18734,1.19063 -1.13045,0 -2.25224,-0.89202 -2.25224,-1.79092 0,-0.62565 0.92702,-2.28092 1.78594,-3.18892 0.79476,-0.84018 -0.004,-0.85804 -1.91823,-0.0429 -0.29104,0.1239 -1.00541,0.37191 -1.5875,0.55113 -0.89172,0.27455 -4.16451,1.39378 -6.08541,2.0811 -0.29104,0.10414 -1.3626,0.45593 -2.38125,0.78175 -1.01864,0.32583 -2.09021,0.69356 -2.38125,0.81719 -1.70093,0.7225 -3.70468,1.32641 -4.011,1.20886 -0.77788,-0.2985 -0.29371,-2.06791 0.90003,-3.28914 0.48774,-0.49899 1.45634,-2.44283 1.29675,-2.60242 -0.0722,-0.0722 -1.2414,0.40351 -2.59814,1.05722 -6.62504,3.19211 -10.65981,4.94624 -11.37712,4.94624 -0.27977,0 -0.86002,0.18169 -1.28945,0.40375 -1.035054,0.53525 -3.111221,0.91124 -4.037725,0.73122 -1.083728,-0.21055 -1.636747,-1.17076 -1.273845,-2.21178 0.35174,-1.00901 1.506294,-2.90495 2.480601,-4.07351 1.304748,-1.56488 0.911725,-1.5855 -2.162958,-0.11348 -5.011827,2.39945 -8.473855,3.99901 -9.809437,4.53227 -0.363802,0.14525 -0.855877,0.36157 -1.093502,0.48071 -0.871389,0.43688 -4.619265,1.07304 -5.42939,0.92158 -1.317115,-0.24625 -1.393542,-1.22645 -0.177758,-2.27981 1.774785,-1.53768 4.347602,-5.27012 3.632756,-5.27012 -0.228029,0 -4.095451,2.12917 -4.34044,2.38958 -0.305376,0.32461 -5.366874,2.69096 -7.937499,3.71094 -2.43763,0.863981 -10.090982,3.919611 -12.700561,3.0787 -0.822053,-0.31029 -0.849366,-0.29274 -3.011043,1.93455 -3.008413,3.09973 -5.579425,5.49004 -7.331586,6.81627 -1.766686,1.33722 -3.217264,1.52521 -4.02141,0.52114 z m 19.523631,-17.94421 c 0.218469,-0.23049 0.397219,-0.51101 0.397219,-0.62338 0,-0.2029 1.384604,-2.05574 2.070068,-2.77012 0.196839,-0.20513 0.659746,-0.85998 1.028684,-1.4552 0.368938,-0.59523 0.906685,-1.34131 1.194991,-1.65795 0.536133,-0.58884 0.449799,-1.14407 -0.177888,-1.14407 -0.192955,0 -0.527465,0.26789 -0.743355,0.59531 -0.215892,0.32742 -0.919117,1.1311 -1.562729,1.78594 -0.643612,0.65484 -1.57892,1.72641 -2.078464,2.38125 -0.499541,0.65484 -0.980411,1.25016 -1.068594,1.32292 -0.371554,0.30656 -2.335016,4.27974 -2.510856,5.08085 -0.172328,0.78511 -0.02933,0.67399 1.431121,-1.1121 0.892421,-1.09141 1.801331,-2.17296 2.019803,-2.40345 z m 96.705551,9.28941 c 0,-0.14179 0.33631,-0.43171 0.74736,-0.64427 0.41105,-0.21256 1.15198,-0.76444 1.64651,-1.2264 1.02738,-0.95971 1.32903,-1.0944 3.84516,-1.71684 2.21582,-0.54814 2.38752,-0.673 2.61849,-1.90421 0.48036,-2.56055 3.52221,-6.37259 6.06915,-7.60586 1.74522,-0.84505 3.56198,-1.14438 3.88166,-0.63953 0.3985,0.62933 0.26649,1.75008 -0.32995,2.80113 -1.11998,1.97365 -2.2952,3.66105 -2.91284,4.18231 -1.3062,1.10235 -2.59087,1.99477 -3.31048,2.29967 l -0.74569,0.31596 0.77057,0.10296 c 0.4238,0.0566 1.01912,-0.0169 1.32291,-0.1634 0.3038,-0.14651 0.90955,-0.34127 1.34611,-0.43282 0.43656,-0.0915 1.29976,-0.2791 1.91823,-0.4168 4.89646,-1.09019 6.14402,-1.30321 9.19427,-1.56991 1.60073,-0.13997 3.68432,-0.19382 4.63021,-0.11967 2.07687,0.1628 4.47193,0.65397 4.65814,0.95526 0.0746,0.12066 0.45964,0.21937 0.85569,0.21937 0.63506,0 0.83931,-0.24227 1.729,-2.05052 1.50318,-3.05513 4.14224,-6.87032 6.38321,-9.22792 1.11625,-1.17434 4.54353,-3.34392 5.95672,-3.7708 0.65286,-0.19721 1.78234,-0.56792 2.50994,-0.8238 1.95178,-0.6864 5.94464,-1.5892 11.1125,-2.51257 2.50865,-0.44824 5.15112,-1.17887 9.525,-2.63363 5.01571,-1.66824 10.88385,-3.78693 11.42548,-4.12517 1.19666,-0.74733 1.99406,0.62331 0.8115,1.3949 -0.32742,0.21364 -1.66687,0.77769 -2.97656,1.25345 -1.30969,0.47576 -2.79797,1.0738 -3.30729,1.32899 -2.54564,1.27543 -12.07069,4.04197 -16.40417,4.76457 -8.26807,1.37868 -14.29787,3.70437 -17.14531,6.61292 -1.12599,1.15016 -4.02135,4.823 -4.02135,5.1012 0,0.075 -0.4539,0.89269 -1.00867,1.81707 -0.55476,0.92438 -1.41539,2.53832 -1.91247,3.58653 -0.52644,1.11008 -1.16342,2.04478 -1.52558,2.2386 -0.55894,0.29913 -0.69326,0.25352 -1.32869,-0.45104 -0.38878,-0.43109 -1.00454,-0.92043 -1.36834,-1.08742 -1.93398,-0.88772 -2.41676,-0.94524 -6.94053,-0.82685 -3.898,0.10202 -5.11273,0.2428 -8.27302,0.95878 -2.03729,0.46157 -4.29947,1.0104 -5.02708,1.21963 -0.7276,0.20923 -2.11044,0.45381 -3.07298,0.54352 -1.42866,0.13315 -1.83084,0.0823 -2.18998,-0.27682 -0.86546,-0.86546 -3.87212,-0.15636 -6.67729,1.57479 -1.99432,1.23075 -2.47954,1.41756 -2.47954,0.95464 z m 12.53099,-6.15628 c 1.42211,-1.17397 1.68981,-1.47088 2.88099,-3.19547 1.59343,-2.30697 0.32993,-2.17738 -2.09823,0.2152 -1.56402,1.5411 -3.07936,4.10267 -2.427,4.10267 0.15653,0 0.89644,-0.50508 1.64424,-1.1224 z m -161.438489,5.5674 c -0.6688583,-0.66886 -0.267303,-1.63286 1.435352,-3.44581 0.600265,-0.63915 1.276217,-1.51239 1.502113,-1.94054 0.459701,-0.87128 3.250187,-3.62761 3.934265,-3.88611 0.243292,-0.0919 0.770686,-0.74001 1.171982,-1.44016 0.401294,-0.70015 1.800339,-2.87772 3.108986,-4.83905 2.417953,-3.62389 2.422578,-3.65358 0.348959,-2.24078 -0.770382,0.52488 -4.754932,4.21027 -6.165487,5.70259 -0.708425,0.74948 -1.724816,1.77429 -2.258647,2.27735 -0.947809,0.89317 -1.771275,2.56749 -2.318557,4.71423 -0.331005,1.29837 -0.894559,2.11985 -1.2876216,1.87693 -0.2005938,-0.12398 -0.1386284,-0.44584 0.1988079,-1.03261 0.2696287,-0.46888 0.5762127,-1.26922 0.6812937,-1.77854 0.229923,-1.11443 2.363957,-5.38645 3.141589,-6.289 0.657939,-0.76364 4.186171,-4.2254 5.31759,-5.21743 2.01095,-1.76318 9.524368,-7.89429 10.703391,-8.7342 0.408551,-0.29104 1.143987,-1.08913 1.634299,-1.77354 0.905709,-1.26424 1.45772,-1.52313 2.029185,-0.95166 0.629306,0.6293 0.333992,1.49573 -0.902316,2.64732 -1.56767,1.46023 -4.299551,4.27946 -4.841912,4.99672 -0.23131,0.3059 -0.98611,1.21806 -1.677334,2.02703 -0.691224,0.80896 -1.256771,1.58521 -1.256771,1.72499 0,0.13978 -0.57277,0.98446 -1.27282,1.87706 -0.700051,0.89261 -1.859463,2.51589 -2.576473,3.60729 -2.260251,3.44047 -2.354668,3.84779 -0.826429,3.56523 1.041133,-0.19249 1.875142,0.3386 1.611328,1.02609 -0.2434,0.63428 -1.187659,0.96493 -2.755648,0.96493 -1.12876,0 -1.357426,0.098 -1.852875,0.79375 -0.310859,0.43657 -0.786574,0.79375 -1.057145,0.79375 -0.270571,0 -0.748168,0.32743 -1.061326,0.72761 -0.866981,1.10791 -4.07974,4.5614 -4.244758,4.56281 -0.08004,8e-4 -0.288396,-0.14162 -0.463021,-0.31625 z m -19.5291333,-4.45763 c -0.8797927,-0.32714 -0.9257987,-0.92516 -0.1762866,-2.29152 1.1629046,-2.11998 2.1906309,-3.28971 2.8115101,-3.19999 0.6021123,0.087 1.7932214,1.93404 1.589532,2.46484 -0.067114,0.1749 -0.5736379,0.4533 -1.125609,0.61867 -0.7875137,0.23595 -1.1049793,0.52554 -1.4745361,1.34507 -0.5291429,1.17343 -0.818433,1.3627 -1.6246104,1.06293 z M 98.500596,27.106001 c -2.091669,-0.50478 -2.780716,-1.39751 -2.773773,-3.59367 0.0066,-2.09305 0.795216,-3.26881 2.907178,-4.33444 4.303359,-2.299016 9.732489,-2.779236 13.095759,-3.26883 1.16417,-0.16886 3.1287,-0.4803 4.36563,-0.69209 2.6294,-0.4502 5.10448,-0.84639 7.14375,-1.1435 1.67839,-0.24453 6.16956,-1.01232 7.14375,-1.22126 0.3638,-0.078 1.19724,-0.23729 1.85208,-0.35392 0.65484,-0.11663 2.14313,-0.40657 3.30729,-0.6443 1.16417,-0.23773 2.71198,-0.54882 3.43959,-0.69131 2.39031,-0.46811 6.27591,-1.3163396 10.9802,-2.3969996 2.54662,-0.585 5.19576,-1.17958 5.88698,-1.32128 2.85472,-0.58524 3.87784,-0.80999 6.01927,-1.32228 3.02843,-0.72447 5.4421,-0.98033 5.17527,-0.54859 -0.24774,0.40086 -1.27423,0.82626 -2.66173,1.10307 -0.58208,0.11613 -2.12989,0.50566 -3.43958,0.86562 -5.94988,1.63528 -7.74484,2.10913 -8.73125,2.30494 -0.58208,0.11556 -1.53458,0.3457996 -2.11666,0.5116496 -0.58209,0.16585 -1.59412,0.42466 -2.24896,0.57513 -0.65485,0.15047 -1.66688,0.38698 -2.24896,0.52558 -0.58208,0.13859 -1.63585,0.35973 -2.34171,0.49142 -0.70586,0.13168 -1.67024,0.36709 -2.14307,0.52314 -0.47283,0.15605 -1.56219,0.41141 -2.42079,0.56746 -1.66004,0.30172 -2.21099,0.39967 -6.98506,1.24188 -1.67349,0.29522 -3.93567,0.71118 -5.02708,0.92436 -2.16075,0.42203 -5.0038,0.87726 -6.87917,1.10147 -0.65484,0.0783 -2.14312,0.3176 -3.30729,0.5318 -3.33342,0.462761 -5.99286,0.908863 -8.59896,1.27113 -5.08763,0.69982 -7.985918,1.66854 -9.658947,3.22837 -1.100508,1.02605 -1.453549,1.72906 -1.453549,2.89443 0,1.19423 0.68856,1.9049 2.250345,2.32262 0.654081,0.17494 1.189241,0.41244 1.189241,0.52778 0,0.22259 -0.841108,0.23267 -1.719794,0.0206 z"
       id="path828"
       inkscape:connector-curvature="0"
       sodipodi:nodetypes="cccsccsssccscscssscccccsccccccccccccsccsccsscccccccccsscscsccccsscsccccscccccscccccscccscscccccscccccscsccccscscsscccccccsccccscccssccccsccsccccccsccccccscccscscccccscccsscssccccccccscccccccscsscccssccccccccccccccccccccssccccccccscccccccccsccccsccccccccccscccccsscscccscccsccccscccccccsccscscsccsccccssccccccccsscscssccccccccssscccsccccsscccscsccscccscsccsccssccccccccccccccccsscccccccscscsccccccccccsscsscccscccccccccccccccccccsccccscsccccccccsccccccccscccccccccccccscccccccscs" />
  </g>
</svg>
